<svg xmlns="http://www.w3.org/2000/svg" viewBox="0 0 1800 520" role="img" aria-labelledby="title desc">
  <title id="title">Cogito Studio Horizontal Logo</title>
  <desc id="desc">Horizontal lockup for Cogito Studio with cognitive forge icon and product wordmark.</desc>
  <defs>
    <linearGradient id="bg" x1="42" y1="36" x2="438" y2="484" gradientUnits="userSpaceOnUse">
      <stop offset="0" stop-color="#EAF6FF"/>
      <stop offset="0.45" stop-color="#BFE4FF"/>
      <stop offset="1" stop-color="#2563EB"/>
    </linearGradient>
    <linearGradient id="loop" x1="128" y1="92" x2="398" y2="414" gradientUnits="userSpaceOnUse">
      <stop offset="0" stop-color="#0F172A"/>
      <stop offset="0.55" stop-color="#1D4ED8"/>
      <stop offset="1" stop-color="#38BDF8"/>
    </linearGradient>
    <linearGradient id="spark" x1="280" y1="142" x2="360" y2="222" gradientUnits="userSpaceOnUse">
      <stop offset="0" stop-color="#FDE68A"/>
      <stop offset="1" stop-color="#38BDF8"/>
    </linearGradient>
  </defs>
  <rect x="40" y="40" width="440" height="440" rx="112" fill="url(#bg)"/>
  <rect x="137" y="143" width="246" height="230" rx="58" fill="#FFFFFF" opacity="0.94"/>
  <path d="M169 197h126M169 260h82M169 324h151" fill="none" stroke="#93C5FD" stroke-width="14" stroke-linecap="round" opacity="0.78"/>
  <path d="M362 356C335 381 299 396 260 396C182 396 118 332 118 254C118 176 182 112 260 112C306 112 348 134 374 168" fill="none" stroke="url(#loop)" stroke-width="46" stroke-linecap="round"/>
  <path d="M202 344L350 196" fill="none" stroke="#0F172A" stroke-width="31" stroke-linecap="round" opacity="0.92"/>
  <path d="M224 322L328 218" fill="none" stroke="#FFFFFF" stroke-width="11" stroke-linecap="round" opacity="0.92"/>
  <circle cx="356" cy="164" r="44" fill="url(#spark)"/>
  <path d="M356 133v62M325 164h62M334 142l44 44M378 142l-44 44" stroke="#FFFFFF" stroke-width="9" stroke-linecap="round" opacity="0.95"/>

  <text x="560" y="242" font-family="Inter, ui-sans-serif, system-ui, -apple-system, BlinkMacSystemFont, 'Segoe UI', sans-serif" font-size="116" font-weight="760" letter-spacing="-4" fill="#0F172A">Cogito</text>
  <text x="560" y="356" font-family="Inter, ui-sans-serif, system-ui, -apple-system, BlinkMacSystemFont, 'Segoe UI', sans-serif" font-size="112" font-weight="520" letter-spacing="-3" fill="#2563EB">Studio</text>
  <text x="1036" y="356" font-family="Inter, ui-sans-serif, system-ui, -apple-system, BlinkMacSystemFont, 'Segoe UI', sans-serif" font-size="28" font-weight="500" letter-spacing="2" fill="#64748B">COGNITIVE WORKSPACE</text>
</svg>
